<svg xmlns="http://www.w3.org/2000/svg" viewBox="0 0 195.85 153.17"><title>favicon2</title><g id="Layer_2" data-name="Layer 2"><g id="Layer_1-2" data-name="Layer 1"><path d="M42.82,152.14c9.09-1.42,18.19-2.79,27-5.45C79,144,87.85,140.76,96,135.81c4.67-2.85,9.12-6.06,13.7-9.06a6.57,6.57,0,0,1,1.95-.5,5.12,5.12,0,0,1,0,1.79c-1.4,3.72-2.88,7.42-4.35,11.11-.4,1-1.24,2.25.1,2.95s2.31-.4,3.09-1.42a3.93,3.93,0,0,0,.51-1c1.89-5.38,4.2-10.63,5-16.37a7.2,7.2,0,0,1,1.43-3.29c1.29-1.67,2.87-3.1,4.28-4.67A59.14,59.14,0,0,0,134.31,94a9.17,9.17,0,0,1,2.83-4.22c5.4-4.84,10.6-9.85,13.68-16.6A2.83,2.83,0,0,1,152,71.84c6.44-3,8.44-8.92,9.42-15.18.87-5.52,1-11.16,1.64-16.71.71-6.05,1.53-12.08,4.47-17.59,5.37-10,13.2-16,25.12-15.39a4.41,4.41,0,0,0,1.85,0c.58-.26,1.32-.88,1.36-1.39A2.06,2.06,0,0,0,194.73,4a10.72,10.72,0,0,0-3.67-.62,28.39,28.39,0,0,0-18.52,6.87c-8.31,7.22-11.77,16.67-12.79,27.31-.63,6.56-1.34,13.11-2.23,19.63a27.25,27.25,0,0,1-2,6.74c-.42,1-1.66,1.65-2.53,2.45-.14-1-.29-1.92-.43-2.88a6.2,6.2,0,0,0-.08-.74c-1-4.08-4.51-6.54-8.29-5.74-3.54.75-5.57,4.37-4.87,8.43a8.5,8.5,0,0,0,5.37,6.63c2.22,1,2.4,1.12.9,3.15-2.21,3-4.68,5.78-7.08,8.61-.28.33-.85.41-1.28.6a5.54,5.54,0,0,1-.33-1.35c.06-2.24.19-4.48.31-7.24a86.67,86.67,0,0,0-.89-9.12c-2.66-13.57-8.77-25.58-17.27-36.39-6.18-7.86-13-15.12-21.89-20A156.56,156.56,0,0,0,83,3.44,40.55,40.55,0,0,0,63.31.15C56.16.75,49.8,4.69,48,13.07c-1.31,6,.26,11.44,2.51,16.68,4,9.39,10.37,17.24,17.94,24,4,3.57,8.22,6.84,12.37,10.21.88.72.8,1-.28,1.35-2.5.75-5,1.58-7.46,2.36a61.06,61.06,0,0,0-19.46,10C49,81.32,45.07,85.43,42.93,91c-1.39,3.6-1.83,7.13-.33,10.88a20.85,20.85,0,0,0,8.74,9.89c10.55,6.68,22,7.92,34.11,5.72,9.76-1.77,18.33-6.22,26.8-11,5.1-2.85,10-6.06,15-9.07a5.06,5.06,0,0,1,1.6-.31,7.66,7.66,0,0,1-.3,1.36c-2.84,6.62-7.18,12.2-12.15,17.33-.56.58-1.09,1-1.84.23a6.21,6.21,0,0,0-5.93-1.5,73.51,73.51,0,0,0-11.56,2.8,179.71,179.71,0,0,0-27,12.54c-8,4.51-16,9.16-23.27,14.85a19.09,19.09,0,0,1-11.42,4.55c-9.6.41-19.18.8-28.76-.18-1.36-.14-2.74-.18-4.11-.2-1.17,0-2.41.12-2.46,1.63,0,1.28,1,1.54,2.07,1.65,2,.21,4,.55,5.94.64a228.39,228.39,0,0,0,23.55.08C32.56,152.84,42.1,152.25,42.82,152.14ZM143.68,66.92a7.78,7.78,0,0,1-.89-3.14,3.07,3.07,0,0,1,2.62-3.48c1.36-.19,2.67.81,3.18,2.52.24.83.38,1.69.66,3-.4.83-.69,2.32-1.6,3.05S144.59,68.57,143.68,66.92Zm-27.92,33.57c-7.32,4.48-14.78,8.79-23,11.51-11.56,3.83-23.18,4.68-34.61-.47a31.15,31.15,0,0,1-7.62-4.64c-6-5.18-6.73-11.23-2.45-18.35a31.61,31.61,0,0,1,8.84-9C65.24,73.46,74.74,70.17,84.64,68c1.15-.25,2.6.47,3.81,1,3.89,1.63,7.67,3.54,11.63,5a13.45,13.45,0,0,0,5.53.35,4.38,4.38,0,0,0,4.26-4c.47-2.64-.51-5-2.82-5.87A18,18,0,0,0,101.3,63a73.27,73.27,0,0,0-10,.53c-2.81.32-5.27.23-7.72-1.58-9.08-6.67-17.41-14.09-24-23.32-3.69-5.2-6.92-10.72-7.81-17.14A28.82,28.82,0,0,1,52,12.62c.86-4.81,4.36-7.28,8.85-8.57,4.72-1.36,9.37-.6,14,.35,5.18,1.06,9.9,3.31,14.6,5.57,11.14,5.35,19.91,13.51,27.3,23.26a85.28,85.28,0,0,1,12.54,22.36,76.6,76.6,0,0,1,4.7,21.52c-.6,3.54-1.25,7.07-1.78,10.62a4.08,4.08,0,0,1-1.93,3C125.47,94,120.74,97.44,115.76,100.49ZM92.48,66.92a4.19,4.19,0,0,1,1.3-.59c1.47-.14,3-.17,4.43-.24a34.79,34.79,0,0,1,6.51,1,2.77,2.77,0,0,1,1.51,2.16,1.91,1.91,0,0,1-2.32,1.82,21.1,21.1,0,0,1-4-.79c-2.21-.74-4.36-1.65-6.52-2.55C93.06,67.63,92.8,67.21,92.48,66.92ZM48.7,146.63A230.5,230.5,0,0,1,76,129.85c7.16-3.7,14.52-7,21.87-10.34a75.12,75.12,0,0,1,8.13-2.69,9.43,9.43,0,0,1,1.82-.42c1.75-.2,3.64-.46,4.61,1.49s-1,2.89-2.1,3.82a101.91,101.91,0,0,1-27.9,17,139.29,139.29,0,0,1-34,9h0l-.45,0A3.44,3.44,0,0,1,48.7,146.63Z"/></g></g></svg>